<?xml version="1.0" encoding="UTF-8"?>
<svg width="252px" height="71px" viewBox="0 0 252 71" version="1.1" xmlns="http://www.w3.org/2000/svg" xmlns:xlink="http://www.w3.org/1999/xlink">
    <title>Group 24</title>
    <g id="Home" stroke="none" stroke-width="1" fill="none" fill-rule="evenodd">
        <g id="Desktop-Copy" transform="translate(-30.000000, -27.000000)" fill="#FFFFFF">
            <g id="Group-24" transform="translate(30.000000, 27.750000)">
                <path d="M41.3441937,36.8961866 L29.2440528,5.62415493 L17.7406373,36.8961866 L41.3441937,36.8961866 Z M0.442996479,59.4771021 L9.98690493,53.767912 L28.3922218,3.57887324 L23.279757,0.25584507 L23.279757,0 L36.4868345,0 L58.3859894,56.4949542 L64.5210951,59.3920669 L64.5210951,59.6471725 L42.8777852,59.6471725 L42.8777852,59.3920669 L49.0128908,56.6650246 L41.8551444,38.1746725 L17.2296866,38.1746725 L11.5204965,53.767912 L21.1494401,59.4771021 L21.1494401,59.6471725 L0.442996479,59.6471725 L0.442996479,59.4771021 Z" id="Fill-19"></path>
                <path d="M73.7263415,50.9557606 L73.7263415,2.89785211 L67.5912359,0.170809859 L67.5912359,0 L88.46775,0 L88.46775,0.170809859 L82.3326444,2.89785211 L82.3326444,47.8028028 C82.3326444,60.5847042 74.9197923,66.6340352 62.3087007,69.6169225 L62.1378908,69.5318873 C68.954757,64.6745282 73.7263415,59.6470986 73.7263415,50.9557606" id="Fill-20"></path>
                <path d="M91.3648627,0 L112.241377,0 L112.241377,0.170070423 L106.106271,2.89711268 L106.106271,36.8964085 C106.106271,49.8483803 112.753067,57.7729225 123.318877,57.7729225 C133.884687,57.7729225 140.445708,49.8483803 140.445708,36.8964085 L140.445708,5.87926056 L130.646694,0.170070423 L130.646694,0 L151.608982,0 L151.608982,0.170070423 L141.809229,5.87926056 L141.809229,35.8737676 C141.724194,53.3414789 132.777011,60.1583451 119.654968,60.1583451 C106.532187,60.1583451 97.4999683,53.3414789 97.4999683,35.8737676 L97.4999683,2.89711268 L91.3648627,0.170070423 L91.3648627,0 Z" id="Fill-21"></path>
                <path d="M179.901011,36.8961866 L167.80087,5.62415493 L156.297454,36.8961866 L179.901011,36.8961866 Z M138.999813,59.4771021 L148.543722,53.767912 L166.949039,3.57887324 L161.836574,0.25584507 L161.836574,0 L175.043651,0 L196.943546,56.4949542 L203.077912,59.3920669 L203.077912,59.6471725 L181.434602,59.6471725 L181.434602,59.3920669 L187.569708,56.6650246 L180.412701,38.1746725 L155.786504,38.1746725 L150.077313,53.767912 L159.706257,59.4771021 L159.706257,59.6471725 L138.999813,59.6471725 L138.999813,59.4771021 Z" id="Fill-22"></path>
                <path d="M226.939014,32.8911761 C234.437641,32.8911761 240.061056,26.1593451 240.061056,17.126831 C240.061056,8.09461268 234.437641,1.36278169 226.939014,1.36278169 L219.014472,1.36278169 L219.014472,32.8911761 L226.939014,32.8911761 Z M204.273063,59.3918451 L210.408169,56.6648028 L210.408169,2.89711268 L204.273063,0.170070423 L204.273063,0 L229.666056,0 C241.765458,0 249.264085,6.98693662 249.264085,17.126831 C249.264085,27.2677606 241.765458,34.2546972 229.666056,34.2546972 L219.014472,34.2546972 L219.014472,34.3397324 C223.189331,45.3314577 234.096761,49.2519507 250.456796,49.2519507 L250.456796,59.6469507 C233.24419,58.9651901 223.445176,48.6552254 219.014472,37.4069155 L219.014472,56.6648028 L225.149577,59.3918451 L225.149577,59.6469507 L204.273063,59.6469507 L204.273063,59.3918451 Z" id="Fill-23"></path>
            </g>
        </g>
    </g>
</svg>