<?xml version="1.0" encoding="UTF-8"?>
<svg width="20px" height="20px" viewBox="0 0 20 20" version="1.1" xmlns="http://www.w3.org/2000/svg" xmlns:xlink="http://www.w3.org/1999/xlink">
    <title>Smiley Copy</title>
    <g id="Home" stroke="none" stroke-width="1" fill="none" fill-rule="evenodd">
        <g id="Smiley-Copy" fill="#FFFFFF" fill-rule="nonzero">
            <path d="M10,0 C4.4771525,0 0,4.4771525 0,10 C0,15.5228475 4.4771525,20 10,20 C15.5228475,20 20,15.5228475 20,10 C19.9922423,4.48036906 15.5196309,0.00775774998 10,0 Z M10,18.1971831 C5.47282078,18.1971831 1.8028169,14.5271792 1.8028169,10 C1.8028169,5.47282078 5.47282078,1.8028169 10,1.8028169 C14.5271792,1.8028169 18.1971831,5.47282078 18.1971831,10 C18.1933002,14.5255699 14.5255699,18.1933002 10,18.1971831 L10,18.1971831 Z" id="Shape"></path>
            <path d="M7.08333492,8.33333333 C7.58954969,8.33333333 8.0457811,8.02800262 8.23883092,7.56004379 C8.43188075,7.09208496 8.32362948,6.55389272 7.96466324,6.19696582 C7.605697,5.84003892 7.06689706,5.73485593 6.60004614,5.93056916 C6.13319522,6.12628239 5.83047743,6.58424643 5.83333333,7.09045338 C5.83726036,7.77802426 6.39575341,8.33333333 7.08333492,8.33333333 L7.08333492,8.33333333 Z" id="Path"></path>
            <path d="M12.076233,8.33333333 C12.5830845,8.33618488 13.0414953,8.03269428 13.2367879,7.56496841 C13.4320804,7.09724253 13.3255895,6.55788491 12.9671856,6.19948103 C12.6087818,5.84107714 12.0694241,5.73458622 11.6016983,5.92987881 C11.1339724,6.12517139 10.8304818,6.58358214 10.8333333,7.09043364 C10.8372336,7.77524343 11.3914232,8.32943309 12.076233,8.33333333 L12.076233,8.33333333 Z" id="Path"></path>
            <path d="M15.3158369,10.8645525 C14.9450276,10.7525291 14.5504219,10.9514266 14.4320738,11.3100055 C13.8117103,13.1889914 12.0096974,14.4639744 9.97437299,14.4639744 C7.93904854,14.4639744 6.13703563,13.1889914 5.51667216,11.3100055 C5.39832409,10.9514266 5.00371842,10.7525291 4.63290911,10.8645525 C4.27427207,10.9905617 4.08343088,11.3696279 4.20163274,11.721193 C5.00517981,14.170125 7.35147763,15.8333333 10.0026534,15.8333333 C12.6538292,15.8333333 15.000127,14.170125 15.8036741,11.721193 C15.8580918,11.5448645 15.8370519,11.3547302 15.7452919,11.1935998 C15.6535318,11.0324694 15.4987646,10.9138871 15.3158369,10.8645525 L15.3158369,10.8645525 Z" id="Path"></path>
        </g>
    </g>
</svg>